<?xml version="1.0" standalone="no"?>
<!DOCTYPE svg PUBLIC "-//W3C//DTD SVG 20010904//EN"
 "http://www.w3.org/TR/2001/REC-SVG-20010904/DTD/svg10.dtd">
<svg version="1.0" xmlns="http://www.w3.org/2000/svg"
 width="409.000000pt" height="409.000000pt" viewBox="0 0 409.000000 409.000000"
 preserveAspectRatio="xMidYMid meet">
<metadata>
Created by potrace 1.11, written by Peter Selinger 2001-2013
</metadata>
<g transform="translate(0.000000,409.000000) scale(0.100000,-0.100000)"
fill="#000000" stroke="none">
<path d="M3118 4062 c-99 -117 -360 -221 -643 -256 -159 -20 -218 -25 -425
-31 -252 -7 -401 -14 -430 -20 -14 -3 -43 -8 -64 -10 -101 -14 -269 -66 -360
-112 -221 -112 -362 -301 -392 -528 -4 -27 -7 -111 -7 -185 l1 -135 -139 -138
-139 -138 0 -175 c0 -101 4 -183 10 -195 17 -31 60 -47 97 -37 53 14 63 46 63
206 l0 139 53 50 54 51 0 -796 c0 -599 4 -808 13 -842 19 -69 48 -119 103
-177 l51 -54 1 -112 c1 -82 6 -120 18 -144 18 -34 64 -72 94 -75 10 -2 -164
-5 -386 -8 -368 -5 -405 -7 -415 -22 -27 -44 -80 -43 1766 -43 1157 0 1755 3
1764 10 8 7 9 17 3 32 l-8 23 -428 0 -428 1 37 19 c20 11 47 36 59 57 21 34
24 51 24 150 l1 112 51 54 c56 59 84 108 103 177 9 33 12 251 12 837 1 436 4
793 7 793 4 0 29 -22 55 -49 l49 -50 2 -143 c1 -79 5 -151 9 -161 13 -29 56
-45 93 -35 58 15 63 33 63 230 l0 177 -139 142 -138 142 -1 137 c0 118 -3 144
-22 188 l-22 50 26 39 c68 102 80 347 30 592 -25 124 -77 291 -90 291 -7 0
-23 -12 -36 -28z m-1740 -3499 l0 -58 -124 0 -124 -1 0 58 0 58 124 0 124 0 0
-57z m1111 -23 c1 -45 6 -91 10 -103 13 -32 49 -67 85 -83 27 -11 -56 -13
-569 -13 -513 0 -596 2 -569 13 37 16 72 52 85 85 6 14 10 60 11 103 l1 78
472 0 472 0 2 -80z m409 23 l-3 -58 -122 0 -121 -1 0 58 1 58 124 0 124 0 -3
-57z"/>
<path d="M580 196 c-8 -11 -9 -20 -2 -33 10 -17 37 -18 424 -19 227 0 423 3
436 8 25 9 30 43 6 52 -9 3 -204 6 -434 6 -352 0 -419 -2 -430 -14z"/>
<path d="M1541 196 c-11 -13 -6 -45 8 -47 3 -1 447 -2 985 -3 1044 -1 1021 -2
996 45 -10 19 -33 19 -994 19 -822 0 -985 -2 -995 -14z"/>
<path d="M1203 63 c-19 -7 -16 -41 5 -51 9 -5 237 -8 505 -8 520 1 521 1 496
48 -9 17 -37 18 -502 17 -271 0 -498 -3 -504 -6z"/>
<path d="M2401 52 c-23 -43 -5 -46 231 -47 125 -1 228 3 236 8 17 13 15 44 -4
51 -9 3 -114 6 -234 6 -201 0 -220 -1 -229 -18z"/>
</g>
</svg>
