<svg xmlns="http://www.w3.org/2000/svg" viewBox="0 0 23 27" width="23" height="27">
  <path d="M7.31,19.14h3.87V14.95H7.31v4.19ZM20.93,3.42a1.27,1.27,0,0,1,.9.37h0a1.27,1.27,0,0,1,.37.9v20.4a1.27,1.27,0,0,1-1.27,1.27H2.07a1.26,1.26,0,0,1-.9-.37h0a1.27,1.27,0,0,1-.37-.9V4.69A1.28,1.28,0,0,1,2.07,3.42H3.92V5.89a.32.32,0,1,0,.64,0V3.42H18.44V5.89a.32.32,0,1,0,.64,0V3.42ZM2.07,2.78H3.92V.32a.32.32,0,0,1,.64,0V2.78H18.44V.32a.32.32,0,0,1,.64,0V2.78h1.85a1.91,1.91,0,0,1,1.35.56h0a1.91,1.91,0,0,1,.56,1.35v20.4A1.91,1.91,0,0,1,20.93,27H2.07a1.9,1.9,0,0,1-1.34-.56h0a1.9,1.9,0,0,1-.56-1.35V4.69A1.91,1.91,0,0,1,2.07,2.78ZM16,9.49h4.51a.32.32,0,0,1,.32.32V24.29a.32.32,0,0,1-.32.32h-18a.32.32,0,0,1-.32-.32V9.8a.32.32,0,0,1,.32-.32H16Zm4.19.64H16.32v4.19h3.87V10.12Zm-4.51,0H11.82v4.19h3.87V10.12Zm4.51,9V14.95H16.32v4.19Zm-4.51,0V14.95H11.82v4.19Zm4.51.64H16.32V24h3.87V19.78Zm-4.51,0H11.82V24h3.87V19.78Zm-9-9.65H2.8v4.19H6.67V10.12Zm4.51,0H7.31v4.19h3.87V10.12ZM6.67,14.95H2.8v4.19H6.67V14.95Zm0,9V19.78H2.8V24Zm4.51-4.19H7.31V24h3.87Z" fill="#30383b" fill-rule="evenodd"/>
</svg>
